<?xml version="1.0" standalone="no"?><!-- Generator: Gravit.io --><svg xmlns="http://www.w3.org/2000/svg" xmlns:xlink="http://www.w3.org/1999/xlink" style="isolation:isolate" viewBox="0 0 120 120" width="120" height="120"><defs><clipPath id="_clipPath_dwnnJcpcEr5yBRu0ObcWKjSTgd8rHfbI"><rect width="120" height="120"/></clipPath></defs><g clip-path="url(#_clipPath_dwnnJcpcEr5yBRu0ObcWKjSTgd8rHfbI)"><path d=" M 60 0 C 26.917 0 0 26.917 0 60 C 0 93.083 26.917 120 60 120 C 93.083 120 120 93.083 120 60 C 120 26.917 93.083 0 60 0 Z  M 60 9.231 C 88.089 9.231 110.769 31.911 110.769 60 C 110.769 88.089 88.089 110.769 60 110.769 C 31.911 110.769 9.231 88.089 9.231 60 C 9.231 31.911 31.911 9.231 60 9.231 Z  M 55.385 36.923 L 55.385 55.385 L 36.923 55.385 L 36.923 64.615 L 55.385 64.615 L 55.385 83.077 L 64.615 83.077 L 64.615 64.615 L 83.077 64.615 L 83.077 55.385 L 64.615 55.385 L 64.615 36.923 L 55.385 36.923 Z " fill="rgb(42,175,255)"/></g></svg>