<?xml version="1.0" standalone="no"?><!-- Generator: Gravit.io --><svg xmlns="http://www.w3.org/2000/svg" xmlns:xlink="http://www.w3.org/1999/xlink" style="isolation:isolate" viewBox="0 0 120 120" width="120" height="120"><defs><clipPath id="_clipPath_h2jXl9saY3AxB4xWuwByzNO1HSZZrlQV"><rect width="120" height="120"/></clipPath></defs><g clip-path="url(#_clipPath_h2jXl9saY3AxB4xWuwByzNO1HSZZrlQV)"><g id="Group"><path d=" M 60 115.218 C 54.352 115.208 49.739 111.079 49.594 105.905 C 47.846 105.203 46.161 104.376 44.556 103.43 C 44.428 104.161 44.347 104.903 44.347 105.654 C 44.347 113.566 51.368 120 60 120 C 68.633 120 75.653 113.566 75.653 105.654 C 75.653 104.903 75.573 104.161 75.447 103.43 C 73.842 104.377 72.156 105.204 70.407 105.905 C 70.262 111.079 65.648 115.208 60 115.218 L 60 115.218 Z " fill="rgb(164,0,0)"/><path d=" M 102.548 61.804 C 98.494 50.632 83.451 14.178 60 14.178 C 36.578 14.178 21.515 50.599 17.453 61.76 C 17.079 62.791 17.509 63.923 18.502 64.517 C 18.708 64.647 39.13 77.145 39.13 98.48 C 39.13 99.135 39.424 99.762 39.944 100.216 C 40.1 100.355 41.806 101.811 44.556 103.432 C 44.908 101.381 45.73 99.43 47.003 97.703 C 46.985 97.562 46.956 97.428 46.956 97.285 C 46.956 95.304 48.708 93.698 50.869 93.698 C 53.031 93.698 54.783 95.304 54.783 97.285 C 54.783 99.21 53.123 100.769 51.047 100.855 C 50.088 102.302 49.576 103.96 49.565 105.654 C 49.565 105.74 49.591 105.819 49.594 105.905 C 52.62 107.117 56.171 108.045 60 108.045 C 63.83 108.045 67.378 107.117 70.407 105.905 C 70.41 105.819 70.436 105.74 70.436 105.654 C 70.436 103.937 69.898 102.304 68.959 100.855 C 66.824 100.785 65.146 99.156 65.193 97.199 C 65.241 95.241 66.995 93.681 69.131 93.698 C 71.293 93.698 73.045 95.304 73.045 97.285 C 73.045 97.428 73.016 97.562 72.998 97.703 C 74.271 99.427 75.093 101.376 75.445 103.432 C 78.194 101.811 79.898 100.355 80.057 100.216 C 80.577 99.765 80.871 99.137 80.871 98.48 C 80.871 77.147 101.288 64.685 101.494 64.56 C 102.485 63.967 102.918 62.834 102.548 61.804 Z  M 41.214 66.846 C 31.861 63.511 34.199 53.509 34.199 53.509 L 52.13 64.465 C 52.13 64.462 47.027 68.919 41.214 66.846 Z  M 78.784 66.846 C 72.972 68.919 67.866 64.465 67.866 64.465 L 85.797 53.509 C 85.804 53.509 88.139 63.511 78.784 66.846 Z  M 22.347 38.71 L 22.697 38.101 L 23.422 36.86 C 26.258 32.075 29.55 27.341 33.309 23.188 C 32.321 23.293 31.327 23.386 30.343 23.386 C 26.508 23.386 23.01 22.587 20.497 21.134 C 18.935 20.232 17.072 18.671 17.072 16.356 C 17.072 8.655 21.747 4.807 21.932 4.659 C 22.878 3.918 23.121 2.668 22.512 1.673 C 21.904 0.678 20.614 0.216 19.43 0.568 C 13.61 2.309 2.606 8.798 2.606 20.863 C 2.606 28.257 8.904 34.997 18.277 37.639 C 18.528 37.709 22.227 38.921 22.347 38.71 Z  M 16.926 42.271 L 16.743 42.211 C 13.657 41.346 10.737 40.044 8.09 38.352 C 6.157 39.741 4.633 40.755 2.209 41.099 C 1.202 41.242 0.378 41.91 0.1 42.808 C -0.179 43.707 0.138 44.671 0.913 45.279 C 5.374 48.779 10.166 50.553 15.154 50.553 C 15.59 50.553 16.015 50.527 16.438 50.503 C 17.544 48.03 18.722 45.583 19.97 43.167 C 19.216 42.974 18.262 42.689 16.926 42.271 Z  M 100.57 0.566 C 99.768 -0.057 98.636 -0.177 97.7 0.262 C 96.764 0.7 96.207 1.611 96.288 2.572 C 96.368 3.532 97.071 4.354 98.069 4.657 C 98.118 4.695 102.929 8.537 102.929 16.354 C 102.929 20.294 97.101 23.384 89.655 23.384 C 88.674 23.384 87.683 23.293 86.694 23.185 C 90.446 27.331 93.727 32.056 96.558 36.833 L 97.646 38.708 C 97.849 38.754 97.44 38.708 97.646 38.708 C 97.907 38.708 100.435 37.993 101.724 37.637 C 111.11 35.033 117.395 28.257 117.395 20.863 C 117.395 8.798 106.388 2.309 100.57 0.566 Z  M 117.794 41.099 C 115.376 40.755 113.855 39.748 111.929 38.364 C 109.271 40.059 106.337 41.359 103.237 42.216 L 102.746 42.352 C 102.652 42.378 102.558 42.404 102.464 42.431 L 99.955 43.031 C 101.232 45.49 102.432 47.982 103.555 50.503 C 103.98 50.53 104.408 50.553 104.849 50.553 L 104.852 50.553 C 109.837 50.553 114.629 48.779 119.091 45.279 C 119.863 44.671 120.179 43.707 119.9 42.809 C 119.622 41.911 118.8 41.244 117.794 41.099 Z " fill="rgb(164,0,0)"/></g></g></svg>