<?xml version="1.0" standalone="no"?><!-- Generator: Gravit.io --><svg xmlns="http://www.w3.org/2000/svg" xmlns:xlink="http://www.w3.org/1999/xlink" style="isolation:isolate" viewBox="0 0 120 120" width="120" height="120"><defs><clipPath id="_clipPath_0oURyF9kjiJgs5BR5Noq1ChEJWNvLbC4"><rect width="120" height="120"/></clipPath></defs><g clip-path="url(#_clipPath_0oURyF9kjiJgs5BR5Noq1ChEJWNvLbC4)"><path d=" M 60 0 C 26.855 0 0 26.855 0 60 C 0 93.145 26.855 120 60 120 C 93.145 120 120 93.145 120 60 C 120 26.855 93.145 0 60 0 Z  M 60 10 C 87.615 10 110 32.385 110 60 C 110 87.615 87.615 110 60 110 C 32.385 110 10 87.615 10 60 C 10 32.385 32.385 10 60 10 Z  M 60 29.065 C 59.08 29.065 58.32 29.045 57.5 29.215 C 56.698 29.417 55.95 29.792 55.31 30.315 C 54.699 30.818 54.218 31.461 53.91 32.19 C 53.555 32.95 53.435 33.85 53.435 35 C 53.435 36.135 53.555 37.03 53.905 37.815 C 54.255 38.595 54.705 39.215 55.31 39.69 C 55.92 40.155 56.68 40.43 57.5 40.625 C 58.32 40.825 59.08 40.94 60 40.94 C 60.9 40.94 61.855 40.82 62.655 40.625 C 63.455 40.425 64.08 40.155 64.685 39.685 C 65.304 39.188 65.789 38.543 66.095 37.81 C 66.445 37.05 66.72 36.135 66.72 35 C 66.72 33.85 66.445 32.95 66.095 32.185 C 65.785 31.456 65.303 30.812 64.69 30.31 C 64.08 29.845 63.455 29.395 62.655 29.22 C 61.855 29.045 60.9 29.06 60 29.06 L 60 29.065 Z  M 53.905 45.78 L 53.905 90.625 L 66.095 90.625 L 66.095 45.78 L 53.905 45.78 Z " fill="rgb(157,0,0)"/></g></svg>