<?xml version="1.0" standalone="no"?><!-- Generator: Gravit.io --><svg xmlns="http://www.w3.org/2000/svg" xmlns:xlink="http://www.w3.org/1999/xlink" style="isolation:isolate" viewBox="0 0 120 120" width="120" height="120"><defs><clipPath id="_clipPath_9SlgIIXGZf7LqoPhHWFO7aOjji0Psgwy"><rect width="120" height="120"/></clipPath></defs><g clip-path="url(#_clipPath_9SlgIIXGZf7LqoPhHWFO7aOjji0Psgwy)"><path d=" M 60 0 C 26.88 0.041 0.041 26.88 0 60 C 0 93.083 26.917 120 60 120 C 93.083 120 120 93.083 120 60 C 120 26.917 93.083 0 60 0 Z  M 60 9.231 C 88.089 9.231 110.769 31.911 110.769 60 C 110.769 88.089 88.089 110.769 60 110.769 C 46.529 110.789 33.604 105.446 24.079 95.921 C 14.554 86.396 9.211 73.471 9.231 60 C 9.231 31.911 31.911 9.231 60 9.231 Z  M 92.308 55.385 L 92.308 60 C 92.308 77.898 77.898 92.308 60 92.308 L 55.385 92.308 L 55.385 101.538 L 60 101.538 C 82.892 101.538 101.538 82.892 101.538 60 L 101.538 55.385 L 92.308 55.385 Z " fill="rgb(255,143,47)"/><g transform="matrix(0.707,-0.707,0.707,0.707,10,66.569)"><text transform="matrix(1,0,0,1,1.688,36.341)" style="font-family:&quot;Open Sans&quot;;font-weight:800;font-size:34px;font-style:normal;fill:#ff8f2f;stroke:none;">K@Z</text></g></g></svg>