<?xml version="1.0" standalone="no"?><!-- Generator: Gravit.io --><svg xmlns="http://www.w3.org/2000/svg" xmlns:xlink="http://www.w3.org/1999/xlink" style="isolation:isolate" viewBox="0 0 120 120" width="120" height="120"><defs><clipPath id="_clipPath_mUlnAbFluYGAA6jkJW8jrlFWJjqoIVvJ"><rect width="120" height="120"/></clipPath></defs><g clip-path="url(#_clipPath_mUlnAbFluYGAA6jkJW8jrlFWJjqoIVvJ)"><g><path d=" M 0 0 L 120 0 L 120 120 L 0 120 L 0 0 Z " fill="none"/><path d=" M 30 54 L 30 66 L 90 66 L 90 54 L 30 54 Z  M 60 0 C 26.88 0 0 26.88 0 60 C 0 93.12 26.88 120 60 120 C 93.12 120 120 93.12 120 60 C 120 26.88 93.12 0 60 0 Z  M 60 108 C 33.54 108 12 86.46 12 60 C 12 33.54 33.54 12 60 12 C 86.46 12 108 33.54 108 60 C 108 86.46 86.46 108 60 108 Z " fill="rgb(255,147,147)"/></g></g></svg>